<mxfile host="app.diagrams.net" modified="2023-05-06T15:08:59.386Z" agent="Mozilla/5.0 (Windows NT 10.0; Win64; x64; rv:109.0) Gecko/20100101 Firefox/112.0" etag="mmFqJHHagkj94BTvF549" version="21.2.9" type="device">
  <diagram id="_G7RUOZMRpgMfMxGVXEv" name="Pagina-1">
    <mxGraphModel dx="1105" dy="689" grid="1" gridSize="10" guides="1" tooltips="1" connect="1" arrows="1" fold="1" page="1" pageScale="1" pageWidth="827" pageHeight="1169" math="0" shadow="0">
      <root>
        <mxCell id="0" />
        <mxCell id="1" parent="0" />
        <mxCell id="o92yWCDCkgeDBt_5n1QN-3" value="Utente" style="rounded=1;arcSize=10;whiteSpace=wrap;html=1;align=center;fontSize=16;labelBackgroundColor=none;" parent="1" vertex="1">
          <mxGeometry x="350" y="258" width="100" height="100" as="geometry" />
        </mxCell>
        <mxCell id="o92yWCDCkgeDBt_5n1QN-12" value="IDUtente" style="text;html=1;strokeColor=none;fillColor=none;align=center;verticalAlign=middle;whiteSpace=wrap;rounded=0;fontStyle=4;fontSize=16;labelBackgroundColor=none;" parent="1" vertex="1">
          <mxGeometry x="486" y="263" width="40" height="20" as="geometry" />
        </mxCell>
        <mxCell id="o92yWCDCkgeDBt_5n1QN-13" value="Nome" style="text;html=1;strokeColor=none;fillColor=none;align=center;verticalAlign=middle;whiteSpace=wrap;rounded=0;fontSize=16;labelBackgroundColor=none;" parent="1" vertex="1">
          <mxGeometry x="486" y="283" width="40" height="20" as="geometry" />
        </mxCell>
        <mxCell id="o92yWCDCkgeDBt_5n1QN-14" value="Cognome" style="text;html=1;strokeColor=none;fillColor=none;align=center;verticalAlign=middle;whiteSpace=wrap;rounded=0;fontSize=16;labelBackgroundColor=none;" parent="1" vertex="1">
          <mxGeometry x="492" y="303" width="40" height="20" as="geometry" />
        </mxCell>
        <mxCell id="o92yWCDCkgeDBt_5n1QN-15" value="Sesso" style="text;html=1;strokeColor=none;fillColor=none;align=center;verticalAlign=middle;whiteSpace=wrap;rounded=0;fontSize=16;labelBackgroundColor=none;" parent="1" vertex="1">
          <mxGeometry x="486" y="323" width="40" height="20" as="geometry" />
        </mxCell>
        <mxCell id="o92yWCDCkgeDBt_5n1QN-18" value="" style="group;flipV=0;flipH=1;labelBackgroundColor=none;" parent="1" vertex="1" connectable="0">
          <mxGeometry x="327" y="249" width="23" height="17" as="geometry" />
        </mxCell>
        <mxCell id="o92yWCDCkgeDBt_5n1QN-16" value="" style="endArrow=none;html=1;exitX=1;exitY=0.25;exitDx=0;exitDy=0;rounded=0;fontSize=12;startSize=8;endSize=8;curved=1;labelBackgroundColor=none;fontColor=default;" parent="o92yWCDCkgeDBt_5n1QN-18" edge="1">
          <mxGeometry width="50" height="50" relative="1" as="geometry">
            <mxPoint x="23" y="17" as="sourcePoint" />
            <mxPoint x="7" y="7" as="targetPoint" />
          </mxGeometry>
        </mxCell>
        <mxCell id="o92yWCDCkgeDBt_5n1QN-17" value="" style="ellipse;whiteSpace=wrap;html=1;aspect=fixed;fontSize=16;labelBackgroundColor=none;" parent="o92yWCDCkgeDBt_5n1QN-18" vertex="1">
          <mxGeometry width="10" height="10" as="geometry" />
        </mxCell>
        <mxCell id="o92yWCDCkgeDBt_5n1QN-19" value="Peso" style="text;html=1;strokeColor=none;fillColor=none;align=center;verticalAlign=middle;whiteSpace=wrap;rounded=0;fontSize=16;labelBackgroundColor=none;" parent="1" vertex="1">
          <mxGeometry x="267" y="236" width="60" height="30" as="geometry" />
        </mxCell>
        <mxCell id="o92yWCDCkgeDBt_5n1QN-22" value="" style="group;flipV=0;flipH=1;labelBackgroundColor=none;" parent="1" vertex="1" connectable="0">
          <mxGeometry x="327" y="269" width="23" height="17" as="geometry" />
        </mxCell>
        <mxCell id="o92yWCDCkgeDBt_5n1QN-20" value="" style="endArrow=none;html=1;exitX=1;exitY=0.25;exitDx=0;exitDy=0;rounded=0;fontSize=12;startSize=8;endSize=8;curved=1;labelBackgroundColor=none;fontColor=default;" parent="o92yWCDCkgeDBt_5n1QN-22" edge="1">
          <mxGeometry width="50" height="50" relative="1" as="geometry">
            <mxPoint x="23" y="17" as="sourcePoint" />
            <mxPoint x="7" y="7" as="targetPoint" />
          </mxGeometry>
        </mxCell>
        <mxCell id="o92yWCDCkgeDBt_5n1QN-21" value="" style="ellipse;whiteSpace=wrap;html=1;aspect=fixed;fontSize=16;labelBackgroundColor=none;" parent="o92yWCDCkgeDBt_5n1QN-22" vertex="1">
          <mxGeometry width="10" height="10" as="geometry" />
        </mxCell>
        <mxCell id="o92yWCDCkgeDBt_5n1QN-23" value="Altezza" style="text;html=1;strokeColor=none;fillColor=none;align=center;verticalAlign=middle;whiteSpace=wrap;rounded=0;fontSize=16;labelBackgroundColor=none;" parent="1" vertex="1">
          <mxGeometry x="267" y="256" width="60" height="30" as="geometry" />
        </mxCell>
        <mxCell id="o92yWCDCkgeDBt_5n1QN-24" value="" style="group;flipV=0;flipH=1;labelBackgroundColor=none;" parent="1" vertex="1" connectable="0">
          <mxGeometry x="327" y="291" width="23" height="17" as="geometry" />
        </mxCell>
        <mxCell id="o92yWCDCkgeDBt_5n1QN-25" value="" style="endArrow=none;html=1;exitX=1;exitY=0.25;exitDx=0;exitDy=0;rounded=0;fontSize=12;startSize=8;endSize=8;curved=1;labelBackgroundColor=none;fontColor=default;" parent="o92yWCDCkgeDBt_5n1QN-24" edge="1">
          <mxGeometry width="50" height="50" relative="1" as="geometry">
            <mxPoint x="23" y="17" as="sourcePoint" />
            <mxPoint x="7" y="7" as="targetPoint" />
          </mxGeometry>
        </mxCell>
        <mxCell id="o92yWCDCkgeDBt_5n1QN-26" value="" style="ellipse;whiteSpace=wrap;html=1;aspect=fixed;fontSize=16;labelBackgroundColor=none;" parent="o92yWCDCkgeDBt_5n1QN-24" vertex="1">
          <mxGeometry width="10" height="10" as="geometry" />
        </mxCell>
        <mxCell id="o92yWCDCkgeDBt_5n1QN-28" value="EtÃ " style="text;html=1;strokeColor=none;fillColor=none;align=center;verticalAlign=middle;whiteSpace=wrap;rounded=0;fontSize=16;labelBackgroundColor=none;" parent="1" vertex="1">
          <mxGeometry x="267" y="280" width="60" height="30" as="geometry" />
        </mxCell>
        <mxCell id="o92yWCDCkgeDBt_5n1QN-37" value="Dispositivo" style="rounded=1;arcSize=10;whiteSpace=wrap;html=1;align=center;fontSize=16;labelBackgroundColor=none;" parent="1" vertex="1">
          <mxGeometry x="350" y="498" width="100" height="100" as="geometry" />
        </mxCell>
        <mxCell id="o92yWCDCkgeDBt_5n1QN-46" value="IDDispositivo" style="text;html=1;strokeColor=none;fillColor=none;align=center;verticalAlign=middle;whiteSpace=wrap;rounded=0;fontStyle=4;fontSize=16;labelBackgroundColor=none;" parent="1" vertex="1">
          <mxGeometry x="510" y="503" width="40" height="20" as="geometry" />
        </mxCell>
        <mxCell id="o92yWCDCkgeDBt_5n1QN-51" value="Possesso" style="shape=rhombus;perimeter=rhombusPerimeter;whiteSpace=wrap;html=1;align=center;fontSize=16;labelBackgroundColor=none;" parent="1" vertex="1">
          <mxGeometry x="340" y="398" width="120" height="60" as="geometry" />
        </mxCell>
        <mxCell id="o92yWCDCkgeDBt_5n1QN-52" value="" style="endArrow=none;html=1;rounded=0;fontSize=12;startSize=8;endSize=8;curved=1;entryX=0.5;entryY=1;entryDx=0;entryDy=0;exitX=0.5;exitY=0;exitDx=0;exitDy=0;labelBackgroundColor=none;fontColor=default;" parent="1" source="o92yWCDCkgeDBt_5n1QN-51" target="o92yWCDCkgeDBt_5n1QN-3" edge="1">
          <mxGeometry relative="1" as="geometry">
            <mxPoint x="330" y="408" as="sourcePoint" />
            <mxPoint x="490" y="408" as="targetPoint" />
          </mxGeometry>
        </mxCell>
        <mxCell id="o92yWCDCkgeDBt_5n1QN-53" value="" style="endArrow=none;html=1;rounded=0;fontSize=12;startSize=8;endSize=8;curved=1;exitX=0.5;exitY=1;exitDx=0;exitDy=0;entryX=0.5;entryY=0;entryDx=0;entryDy=0;labelBackgroundColor=none;fontColor=default;" parent="1" source="o92yWCDCkgeDBt_5n1QN-51" target="o92yWCDCkgeDBt_5n1QN-37" edge="1">
          <mxGeometry relative="1" as="geometry">
            <mxPoint x="210" y="478" as="sourcePoint" />
            <mxPoint x="370" y="478" as="targetPoint" />
          </mxGeometry>
        </mxCell>
        <mxCell id="o92yWCDCkgeDBt_5n1QN-54" value="(0,1)" style="text;html=1;strokeColor=none;fillColor=none;align=center;verticalAlign=middle;whiteSpace=wrap;rounded=0;fontSize=16;labelBackgroundColor=none;" parent="1" vertex="1">
          <mxGeometry x="390" y="358" width="60" height="30" as="geometry" />
        </mxCell>
        <mxCell id="o92yWCDCkgeDBt_5n1QN-55" value="(1,1)" style="text;html=1;strokeColor=none;fillColor=none;align=center;verticalAlign=middle;whiteSpace=wrap;rounded=0;fontSize=16;labelBackgroundColor=none;" parent="1" vertex="1">
          <mxGeometry x="390" y="468" width="60" height="30" as="geometry" />
        </mxCell>
        <mxCell id="o92yWCDCkgeDBt_5n1QN-56" value="Misura" style="rounded=1;arcSize=10;whiteSpace=wrap;html=1;align=center;fontSize=16;labelBackgroundColor=none;" parent="1" vertex="1">
          <mxGeometry x="350" y="764" width="100" height="100" as="geometry" />
        </mxCell>
        <mxCell id="o92yWCDCkgeDBt_5n1QN-65" value="IDMisura" style="text;html=1;strokeColor=none;fillColor=none;align=center;verticalAlign=middle;whiteSpace=wrap;rounded=0;fontStyle=4;fontSize=16;labelBackgroundColor=none;" parent="1" vertex="1">
          <mxGeometry x="492" y="767" width="40" height="20" as="geometry" />
        </mxCell>
        <mxCell id="o92yWCDCkgeDBt_5n1QN-68" value="IDAllenamento" style="text;html=1;strokeColor=none;fillColor=none;align=center;verticalAlign=middle;whiteSpace=wrap;rounded=0;fontSize=16;labelBackgroundColor=none;" parent="1" vertex="1">
          <mxGeometry x="510" y="809" width="40" height="20" as="geometry" />
        </mxCell>
        <mxCell id="o92yWCDCkgeDBt_5n1QN-69" value="Allenamento" style="rounded=1;arcSize=10;whiteSpace=wrap;html=1;align=center;fontSize=16;labelBackgroundColor=none;" parent="1" vertex="1">
          <mxGeometry x="68" y="610" width="100" height="100" as="geometry" />
        </mxCell>
        <mxCell id="o92yWCDCkgeDBt_5n1QN-78" value="IDAllenamento" style="text;html=1;strokeColor=none;fillColor=none;align=center;verticalAlign=middle;whiteSpace=wrap;rounded=0;fontStyle=4;fontSize=16;labelBackgroundColor=none;" parent="1" vertex="1">
          <mxGeometry x="227" y="610" width="40" height="20" as="geometry" />
        </mxCell>
        <mxCell id="o92yWCDCkgeDBt_5n1QN-79" value="IDUtente" style="text;html=1;strokeColor=none;fillColor=none;align=center;verticalAlign=middle;whiteSpace=wrap;rounded=0;fontSize=16;labelBackgroundColor=none;" parent="1" vertex="1">
          <mxGeometry x="217" y="630" width="40" height="20" as="geometry" />
        </mxCell>
        <mxCell id="o92yWCDCkgeDBt_5n1QN-84" value="Timestamp" style="text;html=1;strokeColor=none;fillColor=none;align=center;verticalAlign=middle;whiteSpace=wrap;rounded=0;fontSize=16;labelBackgroundColor=none;" parent="1" vertex="1">
          <mxGeometry x="486" y="784" width="60" height="30" as="geometry" />
        </mxCell>
        <mxCell id="o92yWCDCkgeDBt_5n1QN-86" value="Username" style="text;html=1;strokeColor=none;fillColor=none;align=center;verticalAlign=middle;whiteSpace=wrap;rounded=0;fontSize=16;labelBackgroundColor=none;" parent="1" vertex="1">
          <mxGeometry x="257" y="298" width="60" height="30" as="geometry" />
        </mxCell>
        <mxCell id="o92yWCDCkgeDBt_5n1QN-87" value="Password" style="text;html=1;strokeColor=none;fillColor=none;align=center;verticalAlign=middle;whiteSpace=wrap;rounded=0;fontSize=16;labelBackgroundColor=none;" parent="1" vertex="1">
          <mxGeometry x="257" y="320.5" width="60" height="30" as="geometry" />
        </mxCell>
        <mxCell id="o92yWCDCkgeDBt_5n1QN-88" value="" style="group;flipV=0;flipH=1;labelBackgroundColor=none;" parent="1" vertex="1" connectable="0">
          <mxGeometry x="327" y="309" width="23" height="17" as="geometry" />
        </mxCell>
        <mxCell id="o92yWCDCkgeDBt_5n1QN-89" value="" style="endArrow=none;html=1;exitX=1;exitY=0.25;exitDx=0;exitDy=0;rounded=0;fontSize=12;startSize=8;endSize=8;curved=1;labelBackgroundColor=none;fontColor=default;" parent="o92yWCDCkgeDBt_5n1QN-88" edge="1">
          <mxGeometry width="50" height="50" relative="1" as="geometry">
            <mxPoint x="23" y="17" as="sourcePoint" />
            <mxPoint x="7" y="7" as="targetPoint" />
          </mxGeometry>
        </mxCell>
        <mxCell id="o92yWCDCkgeDBt_5n1QN-90" value="" style="ellipse;whiteSpace=wrap;html=1;aspect=fixed;fontSize=16;labelBackgroundColor=none;" parent="o92yWCDCkgeDBt_5n1QN-88" vertex="1">
          <mxGeometry width="10" height="10" as="geometry" />
        </mxCell>
        <mxCell id="o92yWCDCkgeDBt_5n1QN-91" value="" style="group;flipV=0;flipH=1;labelBackgroundColor=none;" parent="1" vertex="1" connectable="0">
          <mxGeometry x="327" y="327" width="23" height="17" as="geometry" />
        </mxCell>
        <mxCell id="o92yWCDCkgeDBt_5n1QN-92" value="" style="endArrow=none;html=1;exitX=1;exitY=0.25;exitDx=0;exitDy=0;rounded=0;fontSize=12;startSize=8;endSize=8;curved=1;labelBackgroundColor=none;fontColor=default;" parent="o92yWCDCkgeDBt_5n1QN-91" edge="1">
          <mxGeometry width="50" height="50" relative="1" as="geometry">
            <mxPoint x="23" y="17" as="sourcePoint" />
            <mxPoint x="7" y="7" as="targetPoint" />
          </mxGeometry>
        </mxCell>
        <mxCell id="o92yWCDCkgeDBt_5n1QN-93" value="" style="ellipse;whiteSpace=wrap;html=1;aspect=fixed;fontSize=16;labelBackgroundColor=none;" parent="o92yWCDCkgeDBt_5n1QN-91" vertex="1">
          <mxGeometry width="10" height="10" as="geometry" />
        </mxCell>
        <mxCell id="o92yWCDCkgeDBt_5n1QN-94" value="Composizione" style="shape=rhombus;perimeter=rhombusPerimeter;whiteSpace=wrap;html=1;align=center;fontSize=16;labelBackgroundColor=none;" parent="1" vertex="1">
          <mxGeometry x="52" y="784" width="132" height="60" as="geometry" />
        </mxCell>
        <mxCell id="o92yWCDCkgeDBt_5n1QN-95" value="" style="endArrow=none;html=1;rounded=0;fontSize=12;startSize=8;endSize=8;curved=1;exitX=0.5;exitY=1;exitDx=0;exitDy=0;entryX=0.5;entryY=0;entryDx=0;entryDy=0;labelBackgroundColor=none;fontColor=default;" parent="1" source="o92yWCDCkgeDBt_5n1QN-69" target="o92yWCDCkgeDBt_5n1QN-94" edge="1">
          <mxGeometry relative="1" as="geometry">
            <mxPoint x="118" y="720" as="sourcePoint" />
            <mxPoint x="300" y="874" as="targetPoint" />
          </mxGeometry>
        </mxCell>
        <mxCell id="o92yWCDCkgeDBt_5n1QN-96" value="" style="endArrow=none;html=1;rounded=0;fontSize=12;startSize=8;endSize=8;curved=1;exitX=1;exitY=0.5;exitDx=0;exitDy=0;entryX=0;entryY=0.5;entryDx=0;entryDy=0;labelBackgroundColor=none;fontColor=default;" parent="1" source="o92yWCDCkgeDBt_5n1QN-94" target="o92yWCDCkgeDBt_5n1QN-56" edge="1">
          <mxGeometry relative="1" as="geometry">
            <mxPoint x="210" y="884" as="sourcePoint" />
            <mxPoint x="370" y="884" as="targetPoint" />
          </mxGeometry>
        </mxCell>
        <mxCell id="o92yWCDCkgeDBt_5n1QN-97" value="(1,N)" style="text;html=1;strokeColor=none;fillColor=none;align=center;verticalAlign=middle;whiteSpace=wrap;rounded=0;fontSize=16;labelBackgroundColor=none;" parent="1" vertex="1">
          <mxGeometry x="121" y="724" width="60" height="30" as="geometry" />
        </mxCell>
        <mxCell id="o92yWCDCkgeDBt_5n1QN-98" value="(1,1)" style="text;html=1;strokeColor=none;fillColor=none;align=center;verticalAlign=middle;whiteSpace=wrap;rounded=0;fontSize=16;labelBackgroundColor=none;" parent="1" vertex="1">
          <mxGeometry x="290" y="785" width="60" height="30" as="geometry" />
        </mxCell>
        <mxCell id="o92yWCDCkgeDBt_5n1QN-99" value="numSalti" style="text;html=1;strokeColor=none;fillColor=none;align=center;verticalAlign=middle;whiteSpace=wrap;rounded=0;fontSize=16;labelBackgroundColor=none;" parent="1" vertex="1">
          <mxGeometry x="257" y="762" width="60" height="30" as="geometry" />
        </mxCell>
        <mxCell id="o92yWCDCkgeDBt_5n1QN-100" value="" style="group;labelBackgroundColor=none;" parent="1" vertex="1" connectable="0">
          <mxGeometry x="450" y="774" width="23" height="17" as="geometry" />
        </mxCell>
        <mxCell id="o92yWCDCkgeDBt_5n1QN-57" value="" style="endArrow=none;html=1;exitX=1;exitY=0.25;exitDx=0;exitDy=0;rounded=0;fontSize=12;startSize=8;endSize=8;curved=1;labelBackgroundColor=none;fontColor=default;" parent="o92yWCDCkgeDBt_5n1QN-100" edge="1">
          <mxGeometry width="50" height="50" relative="1" as="geometry">
            <mxPoint y="17" as="sourcePoint" />
            <mxPoint x="16" y="7" as="targetPoint" />
          </mxGeometry>
        </mxCell>
        <mxCell id="o92yWCDCkgeDBt_5n1QN-58" value="" style="ellipse;whiteSpace=wrap;html=1;aspect=fixed;fontSize=16;labelBackgroundColor=none;" parent="o92yWCDCkgeDBt_5n1QN-100" vertex="1">
          <mxGeometry x="13" width="10" height="10" as="geometry" />
        </mxCell>
        <mxCell id="o92yWCDCkgeDBt_5n1QN-101" value="" style="group;flipH=1;labelBackgroundColor=none;" parent="1" vertex="1" connectable="0">
          <mxGeometry x="327" y="774" width="23" height="17" as="geometry" />
        </mxCell>
        <mxCell id="o92yWCDCkgeDBt_5n1QN-102" value="" style="endArrow=none;html=1;exitX=1;exitY=0.25;exitDx=0;exitDy=0;rounded=0;fontSize=12;startSize=8;endSize=8;curved=1;labelBackgroundColor=none;fontColor=default;" parent="o92yWCDCkgeDBt_5n1QN-101" edge="1">
          <mxGeometry width="50" height="50" relative="1" as="geometry">
            <mxPoint x="23" y="17" as="sourcePoint" />
            <mxPoint x="7" y="7" as="targetPoint" />
          </mxGeometry>
        </mxCell>
        <mxCell id="o92yWCDCkgeDBt_5n1QN-103" value="" style="ellipse;whiteSpace=wrap;html=1;aspect=fixed;fontSize=16;labelBackgroundColor=none;" parent="o92yWCDCkgeDBt_5n1QN-101" vertex="1">
          <mxGeometry width="10" height="10" as="geometry" />
        </mxCell>
        <mxCell id="o92yWCDCkgeDBt_5n1QN-106" value="Obiettivo" style="rounded=1;arcSize=10;whiteSpace=wrap;html=1;align=center;fontSize=16;labelBackgroundColor=none;" parent="1" vertex="1">
          <mxGeometry x="459" y="20" width="100" height="100" as="geometry" />
        </mxCell>
        <mxCell id="o92yWCDCkgeDBt_5n1QN-115" value="IDObiettivo" style="text;html=1;strokeColor=none;fillColor=none;align=center;verticalAlign=middle;whiteSpace=wrap;rounded=0;fontStyle=4;fontSize=16;labelBackgroundColor=none;" parent="1" vertex="1">
          <mxGeometry x="605" y="25" width="40" height="20" as="geometry" />
        </mxCell>
        <mxCell id="o92yWCDCkgeDBt_5n1QN-120" value="IDCategoria" style="text;html=1;strokeColor=none;fillColor=none;align=center;verticalAlign=middle;whiteSpace=wrap;rounded=0;fontSize=16;labelBackgroundColor=none;" parent="1" vertex="1">
          <mxGeometry x="598" y="40" width="60" height="30" as="geometry" />
        </mxCell>
        <mxCell id="o92yWCDCkgeDBt_5n1QN-121" value="" style="group;flipV=1;flipH=1;labelBackgroundColor=none;" parent="1" vertex="1" connectable="0">
          <mxGeometry x="327" y="350" width="23" height="17" as="geometry" />
        </mxCell>
        <mxCell id="o92yWCDCkgeDBt_5n1QN-122" value="" style="endArrow=none;html=1;exitX=1;exitY=0.25;exitDx=0;exitDy=0;rounded=0;fontSize=12;startSize=8;endSize=8;curved=1;labelBackgroundColor=none;fontColor=default;" parent="o92yWCDCkgeDBt_5n1QN-121" edge="1">
          <mxGeometry width="50" height="50" relative="1" as="geometry">
            <mxPoint x="23" as="sourcePoint" />
            <mxPoint x="7" y="10" as="targetPoint" />
          </mxGeometry>
        </mxCell>
        <mxCell id="o92yWCDCkgeDBt_5n1QN-123" value="" style="ellipse;whiteSpace=wrap;html=1;aspect=fixed;fontSize=16;labelBackgroundColor=none;" parent="o92yWCDCkgeDBt_5n1QN-121" vertex="1">
          <mxGeometry y="8" width="10" height="10" as="geometry" />
        </mxCell>
        <mxCell id="o92yWCDCkgeDBt_5n1QN-124" value="IDObiettivo" style="text;html=1;strokeColor=none;fillColor=none;align=center;verticalAlign=middle;whiteSpace=wrap;rounded=0;fontSize=16;labelBackgroundColor=none;" parent="1" vertex="1">
          <mxGeometry x="255" y="347" width="60" height="30" as="geometry" />
        </mxCell>
        <mxCell id="o92yWCDCkgeDBt_5n1QN-125" value="Parametro" style="text;html=1;strokeColor=none;fillColor=none;align=center;verticalAlign=middle;whiteSpace=wrap;rounded=0;fontSize=16;labelBackgroundColor=none;" parent="1" vertex="1">
          <mxGeometry x="595" y="60" width="60" height="30" as="geometry" />
        </mxCell>
        <mxCell id="o92yWCDCkgeDBt_5n1QN-126" value="CategoriaObiettivo" style="rounded=1;arcSize=10;whiteSpace=wrap;html=1;align=center;fontSize=16;labelBackgroundColor=none;" parent="1" vertex="1">
          <mxGeometry x="97" y="25" width="158" height="100" as="geometry" />
        </mxCell>
        <mxCell id="o92yWCDCkgeDBt_5n1QN-135" value="IDCategoria" style="text;html=1;strokeColor=none;fillColor=none;align=center;verticalAlign=middle;whiteSpace=wrap;rounded=0;fontStyle=4;fontSize=16;labelBackgroundColor=none;" parent="1" vertex="1">
          <mxGeometry x="28" y="40" width="40" height="20" as="geometry" />
        </mxCell>
        <mxCell id="o92yWCDCkgeDBt_5n1QN-136" value="Descrizione" style="text;html=1;strokeColor=none;fillColor=none;align=center;verticalAlign=middle;whiteSpace=wrap;rounded=0;fontSize=16;labelBackgroundColor=none;" parent="1" vertex="1">
          <mxGeometry x="28" y="80" width="40" height="20" as="geometry" />
        </mxCell>
        <mxCell id="o92yWCDCkgeDBt_5n1QN-139" value="Esecuzione" style="shape=rhombus;perimeter=rhombusPerimeter;whiteSpace=wrap;html=1;align=center;fontSize=16;labelBackgroundColor=none;" parent="1" vertex="1">
          <mxGeometry x="58" y="438" width="120" height="60" as="geometry" />
        </mxCell>
        <mxCell id="o92yWCDCkgeDBt_5n1QN-140" value="Scelta" style="shape=rhombus;perimeter=rhombusPerimeter;whiteSpace=wrap;html=1;align=center;fontSize=16;labelBackgroundColor=none;" parent="1" vertex="1">
          <mxGeometry x="340" y="160" width="120" height="60" as="geometry" />
        </mxCell>
        <mxCell id="o92yWCDCkgeDBt_5n1QN-141" value="Appartenenza" style="shape=rhombus;perimeter=rhombusPerimeter;whiteSpace=wrap;html=1;align=center;fontSize=16;labelBackgroundColor=none;" parent="1" vertex="1">
          <mxGeometry x="287" y="40" width="130" height="60" as="geometry" />
        </mxCell>
        <mxCell id="o92yWCDCkgeDBt_5n1QN-142" value="" style="endArrow=none;html=1;rounded=0;fontSize=12;startSize=8;endSize=8;curved=1;exitX=0.5;exitY=1;exitDx=0;exitDy=0;entryX=0.5;entryY=0;entryDx=0;entryDy=0;labelBackgroundColor=none;fontColor=default;" parent="1" source="o92yWCDCkgeDBt_5n1QN-139" target="o92yWCDCkgeDBt_5n1QN-69" edge="1">
          <mxGeometry relative="1" as="geometry">
            <mxPoint x="100" y="490" as="sourcePoint" />
            <mxPoint x="260" y="490" as="targetPoint" />
          </mxGeometry>
        </mxCell>
        <mxCell id="o92yWCDCkgeDBt_5n1QN-143" value="" style="endArrow=none;html=1;rounded=0;fontSize=12;startSize=8;endSize=8;entryX=0.25;entryY=1;entryDx=0;entryDy=0;exitX=1;exitY=0.5;exitDx=0;exitDy=0;labelBackgroundColor=none;fontColor=default;" parent="1" source="o92yWCDCkgeDBt_5n1QN-139" target="o92yWCDCkgeDBt_5n1QN-3" edge="1">
          <mxGeometry relative="1" as="geometry">
            <mxPoint x="180" y="450" as="sourcePoint" />
            <mxPoint x="340" y="450" as="targetPoint" />
            <Array as="points">
              <mxPoint x="280" y="468" />
              <mxPoint x="280" y="400" />
              <mxPoint x="375" y="400" />
            </Array>
          </mxGeometry>
        </mxCell>
        <mxCell id="o92yWCDCkgeDBt_5n1QN-144" value="&lt;div&gt;(1,1)&lt;/div&gt;" style="text;html=1;strokeColor=none;fillColor=none;align=center;verticalAlign=middle;whiteSpace=wrap;rounded=0;fontSize=16;labelBackgroundColor=none;" parent="1" vertex="1">
          <mxGeometry x="118" y="570" width="60" height="30" as="geometry" />
        </mxCell>
        <mxCell id="o92yWCDCkgeDBt_5n1QN-145" value="(1,N)" style="text;html=1;strokeColor=none;fillColor=none;align=center;verticalAlign=middle;whiteSpace=wrap;rounded=0;fontSize=16;labelBackgroundColor=none;" parent="1" vertex="1">
          <mxGeometry x="227" y="398" width="60" height="30" as="geometry" />
        </mxCell>
        <mxCell id="o92yWCDCkgeDBt_5n1QN-159" value="" style="group;flipV=0;flipH=0;labelBackgroundColor=none;" parent="1" vertex="1" connectable="0">
          <mxGeometry x="450" y="250" width="23" height="17" as="geometry" />
        </mxCell>
        <mxCell id="o92yWCDCkgeDBt_5n1QN-160" value="" style="endArrow=none;html=1;exitX=1;exitY=0.25;exitDx=0;exitDy=0;rounded=0;fontSize=12;startSize=8;endSize=8;curved=1;labelBackgroundColor=none;fontColor=default;" parent="o92yWCDCkgeDBt_5n1QN-159" edge="1">
          <mxGeometry width="50" height="50" relative="1" as="geometry">
            <mxPoint y="17" as="sourcePoint" />
            <mxPoint x="16" y="7" as="targetPoint" />
          </mxGeometry>
        </mxCell>
        <mxCell id="o92yWCDCkgeDBt_5n1QN-161" value="" style="ellipse;whiteSpace=wrap;html=1;aspect=fixed;fontSize=16;labelBackgroundColor=none;" parent="o92yWCDCkgeDBt_5n1QN-159" vertex="1">
          <mxGeometry x="13" width="10" height="10" as="geometry" />
        </mxCell>
        <mxCell id="o92yWCDCkgeDBt_5n1QN-162" value="Partecipazione" style="text;html=1;strokeColor=none;fillColor=none;align=center;verticalAlign=middle;whiteSpace=wrap;rounded=0;fontSize=16;labelBackgroundColor=none;" parent="1" vertex="1">
          <mxGeometry x="500" y="239" width="60" height="30" as="geometry" />
        </mxCell>
        <mxCell id="o92yWCDCkgeDBt_5n1QN-164" value="" style="endArrow=none;html=1;rounded=0;fontSize=12;startSize=8;endSize=8;exitX=0.5;exitY=1;exitDx=0;exitDy=0;entryX=1;entryY=0.5;entryDx=0;entryDy=0;labelBackgroundColor=none;fontColor=default;" parent="1" source="o92yWCDCkgeDBt_5n1QN-106" target="o92yWCDCkgeDBt_5n1QN-140" edge="1">
          <mxGeometry relative="1" as="geometry">
            <mxPoint x="510" y="180" as="sourcePoint" />
            <mxPoint x="670" y="180" as="targetPoint" />
            <Array as="points">
              <mxPoint x="510" y="190" />
            </Array>
          </mxGeometry>
        </mxCell>
        <mxCell id="o92yWCDCkgeDBt_5n1QN-165" value="" style="endArrow=none;html=1;rounded=0;fontSize=12;startSize=8;endSize=8;curved=1;exitX=0.5;exitY=1;exitDx=0;exitDy=0;entryX=0.5;entryY=0;entryDx=0;entryDy=0;labelBackgroundColor=none;fontColor=default;" parent="1" source="o92yWCDCkgeDBt_5n1QN-140" target="o92yWCDCkgeDBt_5n1QN-3" edge="1">
          <mxGeometry relative="1" as="geometry">
            <mxPoint x="540" y="210" as="sourcePoint" />
            <mxPoint x="700" y="210" as="targetPoint" />
          </mxGeometry>
        </mxCell>
        <mxCell id="o92yWCDCkgeDBt_5n1QN-166" value="" style="endArrow=none;html=1;rounded=0;fontSize=12;startSize=8;endSize=8;curved=1;entryX=0;entryY=0.5;entryDx=0;entryDy=0;exitX=1;exitY=0.5;exitDx=0;exitDy=0;labelBackgroundColor=none;fontColor=default;" parent="1" source="o92yWCDCkgeDBt_5n1QN-141" target="o92yWCDCkgeDBt_5n1QN-106" edge="1">
          <mxGeometry relative="1" as="geometry">
            <mxPoint x="220" y="200" as="sourcePoint" />
            <mxPoint x="380" y="200" as="targetPoint" />
          </mxGeometry>
        </mxCell>
        <mxCell id="o92yWCDCkgeDBt_5n1QN-167" value="" style="endArrow=none;html=1;rounded=0;fontSize=12;startSize=8;endSize=8;curved=1;exitX=1.008;exitY=0.447;exitDx=0;exitDy=0;entryX=0;entryY=0.5;entryDx=0;entryDy=0;exitPerimeter=0;labelBackgroundColor=none;fontColor=default;" parent="1" source="o92yWCDCkgeDBt_5n1QN-126" target="o92yWCDCkgeDBt_5n1QN-141" edge="1">
          <mxGeometry relative="1" as="geometry">
            <mxPoint x="180" y="190" as="sourcePoint" />
            <mxPoint x="340" y="190" as="targetPoint" />
          </mxGeometry>
        </mxCell>
        <mxCell id="o92yWCDCkgeDBt_5n1QN-172" value="(1,N)" style="text;html=1;strokeColor=none;fillColor=none;align=center;verticalAlign=middle;whiteSpace=wrap;rounded=0;fontSize=16;labelBackgroundColor=none;" parent="1" vertex="1">
          <mxGeometry x="249" y="70" width="60" height="30" as="geometry" />
        </mxCell>
        <mxCell id="o92yWCDCkgeDBt_5n1QN-173" value="(1,1)" style="text;html=1;strokeColor=none;fillColor=none;align=center;verticalAlign=middle;whiteSpace=wrap;rounded=0;fontSize=16;labelBackgroundColor=none;" parent="1" vertex="1">
          <mxGeometry x="399" y="70" width="60" height="30" as="geometry" />
        </mxCell>
        <mxCell id="o92yWCDCkgeDBt_5n1QN-174" value="" style="group;flipV=0;flipH=1;labelBackgroundColor=none;" parent="1" vertex="1" connectable="0">
          <mxGeometry x="74" y="25" width="23" height="17" as="geometry" />
        </mxCell>
        <mxCell id="o92yWCDCkgeDBt_5n1QN-127" value="" style="endArrow=none;html=1;exitX=1;exitY=0.25;exitDx=0;exitDy=0;rounded=0;fontSize=12;startSize=8;endSize=8;curved=1;labelBackgroundColor=none;fontColor=default;" parent="o92yWCDCkgeDBt_5n1QN-174" edge="1">
          <mxGeometry width="50" height="50" relative="1" as="geometry">
            <mxPoint x="23" y="17" as="sourcePoint" />
            <mxPoint x="7" y="7" as="targetPoint" />
          </mxGeometry>
        </mxCell>
        <mxCell id="o92yWCDCkgeDBt_5n1QN-128" value="" style="ellipse;whiteSpace=wrap;html=1;aspect=fixed;fontSize=16;labelBackgroundColor=none;" parent="o92yWCDCkgeDBt_5n1QN-174" vertex="1">
          <mxGeometry width="10" height="10" as="geometry" />
        </mxCell>
        <mxCell id="o92yWCDCkgeDBt_5n1QN-176" value="" style="group;flipV=0;flipH=1;labelBackgroundColor=none;" parent="1" vertex="1" connectable="0">
          <mxGeometry x="74" y="70" width="23" height="17" as="geometry" />
        </mxCell>
        <mxCell id="o92yWCDCkgeDBt_5n1QN-177" value="" style="endArrow=none;html=1;exitX=1;exitY=0.25;exitDx=0;exitDy=0;rounded=0;fontSize=12;startSize=8;endSize=8;curved=1;labelBackgroundColor=none;fontColor=default;" parent="o92yWCDCkgeDBt_5n1QN-176" edge="1">
          <mxGeometry width="50" height="50" relative="1" as="geometry">
            <mxPoint x="23" y="17" as="sourcePoint" />
            <mxPoint x="7" y="7" as="targetPoint" />
          </mxGeometry>
        </mxCell>
        <mxCell id="o92yWCDCkgeDBt_5n1QN-178" value="" style="ellipse;whiteSpace=wrap;html=1;aspect=fixed;fontSize=16;labelBackgroundColor=none;" parent="o92yWCDCkgeDBt_5n1QN-176" vertex="1">
          <mxGeometry width="10" height="10" as="geometry" />
        </mxCell>
        <mxCell id="o92yWCDCkgeDBt_5n1QN-180" value="(0,1)" style="text;html=1;strokeColor=none;fillColor=none;align=center;verticalAlign=middle;whiteSpace=wrap;rounded=0;fontSize=16;labelBackgroundColor=none;" parent="1" vertex="1">
          <mxGeometry x="350" y="228" width="60" height="30" as="geometry" />
        </mxCell>
        <mxCell id="o92yWCDCkgeDBt_5n1QN-181" value="&lt;div&gt;(1,1)&lt;/div&gt;" style="text;html=1;strokeColor=none;fillColor=none;align=center;verticalAlign=middle;whiteSpace=wrap;rounded=0;fontSize=16;labelBackgroundColor=none;" parent="1" vertex="1">
          <mxGeometry x="499" y="120" width="60" height="30" as="geometry" />
        </mxCell>
        <mxCell id="o92yWCDCkgeDBt_5n1QN-182" value="" style="group;labelBackgroundColor=none;" parent="1" vertex="1" connectable="0">
          <mxGeometry x="559" y="30" width="23" height="17" as="geometry" />
        </mxCell>
        <mxCell id="o92yWCDCkgeDBt_5n1QN-107" value="" style="endArrow=none;html=1;exitX=1;exitY=0.25;exitDx=0;exitDy=0;rounded=0;fontSize=12;startSize=8;endSize=8;curved=1;labelBackgroundColor=none;fontColor=default;" parent="o92yWCDCkgeDBt_5n1QN-182" edge="1">
          <mxGeometry width="50" height="50" relative="1" as="geometry">
            <mxPoint y="17" as="sourcePoint" />
            <mxPoint x="16" y="7" as="targetPoint" />
          </mxGeometry>
        </mxCell>
        <mxCell id="o92yWCDCkgeDBt_5n1QN-108" value="" style="ellipse;whiteSpace=wrap;html=1;aspect=fixed;fontSize=16;labelBackgroundColor=none;" parent="o92yWCDCkgeDBt_5n1QN-182" vertex="1">
          <mxGeometry x="13" width="10" height="10" as="geometry" />
        </mxCell>
        <mxCell id="o92yWCDCkgeDBt_5n1QN-183" value="" style="group;labelBackgroundColor=none;" parent="1" vertex="1" connectable="0">
          <mxGeometry x="559" y="50" width="23" height="17" as="geometry" />
        </mxCell>
        <mxCell id="o92yWCDCkgeDBt_5n1QN-109" value="" style="endArrow=none;html=1;exitX=1;exitY=0.25;exitDx=0;exitDy=0;rounded=0;fontSize=12;startSize=8;endSize=8;curved=1;labelBackgroundColor=none;fontColor=default;" parent="o92yWCDCkgeDBt_5n1QN-183" edge="1">
          <mxGeometry width="50" height="50" relative="1" as="geometry">
            <mxPoint y="17" as="sourcePoint" />
            <mxPoint x="16" y="7" as="targetPoint" />
          </mxGeometry>
        </mxCell>
        <mxCell id="o92yWCDCkgeDBt_5n1QN-110" value="" style="ellipse;whiteSpace=wrap;html=1;aspect=fixed;fontSize=16;labelBackgroundColor=none;" parent="o92yWCDCkgeDBt_5n1QN-183" vertex="1">
          <mxGeometry x="13" width="10" height="10" as="geometry" />
        </mxCell>
        <mxCell id="o92yWCDCkgeDBt_5n1QN-184" value="" style="group;labelBackgroundColor=none;" parent="1" vertex="1" connectable="0">
          <mxGeometry x="559" y="70" width="23" height="17" as="geometry" />
        </mxCell>
        <mxCell id="o92yWCDCkgeDBt_5n1QN-111" value="" style="endArrow=none;html=1;exitX=1;exitY=0.25;exitDx=0;exitDy=0;rounded=0;fontSize=12;startSize=8;endSize=8;curved=1;labelBackgroundColor=none;fontColor=default;" parent="o92yWCDCkgeDBt_5n1QN-184" edge="1">
          <mxGeometry width="50" height="50" relative="1" as="geometry">
            <mxPoint y="17" as="sourcePoint" />
            <mxPoint x="16" y="7" as="targetPoint" />
          </mxGeometry>
        </mxCell>
        <mxCell id="o92yWCDCkgeDBt_5n1QN-112" value="" style="ellipse;whiteSpace=wrap;html=1;aspect=fixed;fontSize=16;labelBackgroundColor=none;" parent="o92yWCDCkgeDBt_5n1QN-184" vertex="1">
          <mxGeometry x="13" width="10" height="10" as="geometry" />
        </mxCell>
        <mxCell id="o92yWCDCkgeDBt_5n1QN-185" value="" style="group;labelBackgroundColor=none;" parent="1" vertex="1" connectable="0">
          <mxGeometry x="559" y="90" width="23" height="17" as="geometry" />
        </mxCell>
        <mxCell id="o92yWCDCkgeDBt_5n1QN-113" value="" style="endArrow=none;html=1;exitX=1;exitY=0.25;exitDx=0;exitDy=0;rounded=0;fontSize=12;startSize=8;endSize=8;curved=1;labelBackgroundColor=none;fontColor=default;" parent="o92yWCDCkgeDBt_5n1QN-185" edge="1">
          <mxGeometry width="50" height="50" relative="1" as="geometry">
            <mxPoint y="17" as="sourcePoint" />
            <mxPoint x="16" y="7" as="targetPoint" />
          </mxGeometry>
        </mxCell>
        <mxCell id="o92yWCDCkgeDBt_5n1QN-114" value="" style="ellipse;whiteSpace=wrap;html=1;aspect=fixed;fontSize=16;labelBackgroundColor=none;" parent="o92yWCDCkgeDBt_5n1QN-185" vertex="1">
          <mxGeometry x="13" width="10" height="10" as="geometry" />
        </mxCell>
        <mxCell id="o92yWCDCkgeDBt_5n1QN-186" value="" style="group;labelBackgroundColor=none;" parent="1" vertex="1" connectable="0">
          <mxGeometry x="450" y="268" width="23" height="17" as="geometry" />
        </mxCell>
        <mxCell id="o92yWCDCkgeDBt_5n1QN-4" value="" style="endArrow=none;html=1;exitX=1;exitY=0.25;exitDx=0;exitDy=0;rounded=0;fontSize=12;startSize=8;endSize=8;curved=1;labelBackgroundColor=none;fontColor=default;" parent="o92yWCDCkgeDBt_5n1QN-186" edge="1">
          <mxGeometry width="50" height="50" relative="1" as="geometry">
            <mxPoint y="17" as="sourcePoint" />
            <mxPoint x="16" y="7" as="targetPoint" />
          </mxGeometry>
        </mxCell>
        <mxCell id="o92yWCDCkgeDBt_5n1QN-5" value="" style="ellipse;whiteSpace=wrap;html=1;aspect=fixed;fontSize=16;labelBackgroundColor=none;" parent="o92yWCDCkgeDBt_5n1QN-186" vertex="1">
          <mxGeometry x="13" width="10" height="10" as="geometry" />
        </mxCell>
        <mxCell id="o92yWCDCkgeDBt_5n1QN-187" value="" style="group;labelBackgroundColor=none;" parent="1" vertex="1" connectable="0">
          <mxGeometry x="450" y="288" width="23" height="17" as="geometry" />
        </mxCell>
        <mxCell id="o92yWCDCkgeDBt_5n1QN-6" value="" style="endArrow=none;html=1;exitX=1;exitY=0.25;exitDx=0;exitDy=0;rounded=0;fontSize=12;startSize=8;endSize=8;curved=1;labelBackgroundColor=none;fontColor=default;" parent="o92yWCDCkgeDBt_5n1QN-187" edge="1">
          <mxGeometry width="50" height="50" relative="1" as="geometry">
            <mxPoint y="17" as="sourcePoint" />
            <mxPoint x="16" y="7" as="targetPoint" />
          </mxGeometry>
        </mxCell>
        <mxCell id="o92yWCDCkgeDBt_5n1QN-7" value="" style="ellipse;whiteSpace=wrap;html=1;aspect=fixed;fontSize=16;labelBackgroundColor=none;" parent="o92yWCDCkgeDBt_5n1QN-187" vertex="1">
          <mxGeometry x="13" width="10" height="10" as="geometry" />
        </mxCell>
        <mxCell id="o92yWCDCkgeDBt_5n1QN-188" value="" style="group;labelBackgroundColor=none;" parent="1" vertex="1" connectable="0">
          <mxGeometry x="450" y="308" width="23" height="17" as="geometry" />
        </mxCell>
        <mxCell id="o92yWCDCkgeDBt_5n1QN-8" value="" style="endArrow=none;html=1;exitX=1;exitY=0.25;exitDx=0;exitDy=0;rounded=0;fontSize=12;startSize=8;endSize=8;curved=1;labelBackgroundColor=none;fontColor=default;" parent="o92yWCDCkgeDBt_5n1QN-188" edge="1">
          <mxGeometry width="50" height="50" relative="1" as="geometry">
            <mxPoint y="17" as="sourcePoint" />
            <mxPoint x="16" y="7" as="targetPoint" />
          </mxGeometry>
        </mxCell>
        <mxCell id="o92yWCDCkgeDBt_5n1QN-9" value="" style="ellipse;whiteSpace=wrap;html=1;aspect=fixed;fontSize=16;labelBackgroundColor=none;" parent="o92yWCDCkgeDBt_5n1QN-188" vertex="1">
          <mxGeometry x="13" width="10" height="10" as="geometry" />
        </mxCell>
        <mxCell id="o92yWCDCkgeDBt_5n1QN-189" value="" style="group;labelBackgroundColor=none;" parent="1" vertex="1" connectable="0">
          <mxGeometry x="450" y="328" width="23" height="17" as="geometry" />
        </mxCell>
        <mxCell id="o92yWCDCkgeDBt_5n1QN-10" value="" style="endArrow=none;html=1;exitX=1;exitY=0.25;exitDx=0;exitDy=0;rounded=0;fontSize=12;startSize=8;endSize=8;curved=1;labelBackgroundColor=none;fontColor=default;" parent="o92yWCDCkgeDBt_5n1QN-189" edge="1">
          <mxGeometry width="50" height="50" relative="1" as="geometry">
            <mxPoint y="17" as="sourcePoint" />
            <mxPoint x="16" y="7" as="targetPoint" />
          </mxGeometry>
        </mxCell>
        <mxCell id="o92yWCDCkgeDBt_5n1QN-11" value="" style="ellipse;whiteSpace=wrap;html=1;aspect=fixed;fontSize=16;labelBackgroundColor=none;" parent="o92yWCDCkgeDBt_5n1QN-189" vertex="1">
          <mxGeometry x="13" width="10" height="10" as="geometry" />
        </mxCell>
        <mxCell id="o92yWCDCkgeDBt_5n1QN-190" value="" style="group;labelBackgroundColor=none;" parent="1" vertex="1" connectable="0">
          <mxGeometry x="450" y="508" width="23" height="17" as="geometry" />
        </mxCell>
        <mxCell id="o92yWCDCkgeDBt_5n1QN-38" value="" style="endArrow=none;html=1;exitX=1;exitY=0.25;exitDx=0;exitDy=0;rounded=0;fontSize=12;startSize=8;endSize=8;curved=1;labelBackgroundColor=none;fontColor=default;" parent="o92yWCDCkgeDBt_5n1QN-190" edge="1">
          <mxGeometry width="50" height="50" relative="1" as="geometry">
            <mxPoint y="17" as="sourcePoint" />
            <mxPoint x="16" y="7" as="targetPoint" />
          </mxGeometry>
        </mxCell>
        <mxCell id="o92yWCDCkgeDBt_5n1QN-39" value="" style="ellipse;whiteSpace=wrap;html=1;aspect=fixed;fontSize=16;labelBackgroundColor=none;" parent="o92yWCDCkgeDBt_5n1QN-190" vertex="1">
          <mxGeometry x="13" width="10" height="10" as="geometry" />
        </mxCell>
        <mxCell id="o92yWCDCkgeDBt_5n1QN-191" value="" style="group;labelBackgroundColor=none;" parent="1" vertex="1" connectable="0">
          <mxGeometry x="450" y="528" width="23" height="17" as="geometry" />
        </mxCell>
        <mxCell id="o92yWCDCkgeDBt_5n1QN-40" value="" style="endArrow=none;html=1;exitX=1;exitY=0.25;exitDx=0;exitDy=0;rounded=0;fontSize=12;startSize=8;endSize=8;curved=1;labelBackgroundColor=none;fontColor=default;" parent="o92yWCDCkgeDBt_5n1QN-191" edge="1">
          <mxGeometry width="50" height="50" relative="1" as="geometry">
            <mxPoint y="17" as="sourcePoint" />
            <mxPoint x="16" y="7" as="targetPoint" />
          </mxGeometry>
        </mxCell>
        <mxCell id="o92yWCDCkgeDBt_5n1QN-41" value="" style="ellipse;whiteSpace=wrap;html=1;aspect=fixed;fontSize=16;labelBackgroundColor=none;" parent="o92yWCDCkgeDBt_5n1QN-191" vertex="1">
          <mxGeometry x="13" width="10" height="10" as="geometry" />
        </mxCell>
        <mxCell id="o92yWCDCkgeDBt_5n1QN-192" value="" style="group;labelBackgroundColor=none;" parent="1" vertex="1" connectable="0">
          <mxGeometry x="168" y="615" width="23" height="17" as="geometry" />
        </mxCell>
        <mxCell id="o92yWCDCkgeDBt_5n1QN-70" value="" style="endArrow=none;html=1;exitX=1;exitY=0.25;exitDx=0;exitDy=0;rounded=0;fontSize=12;startSize=8;endSize=8;curved=1;labelBackgroundColor=none;fontColor=default;" parent="o92yWCDCkgeDBt_5n1QN-192" edge="1">
          <mxGeometry width="50" height="50" relative="1" as="geometry">
            <mxPoint y="17" as="sourcePoint" />
            <mxPoint x="16" y="7" as="targetPoint" />
          </mxGeometry>
        </mxCell>
        <mxCell id="o92yWCDCkgeDBt_5n1QN-71" value="" style="ellipse;whiteSpace=wrap;html=1;aspect=fixed;fontSize=16;labelBackgroundColor=none;" parent="o92yWCDCkgeDBt_5n1QN-192" vertex="1">
          <mxGeometry x="13" width="10" height="10" as="geometry" />
        </mxCell>
        <mxCell id="o92yWCDCkgeDBt_5n1QN-193" value="" style="group;labelBackgroundColor=none;" parent="1" vertex="1" connectable="0">
          <mxGeometry x="168" y="635" width="23" height="17" as="geometry" />
        </mxCell>
        <mxCell id="o92yWCDCkgeDBt_5n1QN-72" value="" style="endArrow=none;html=1;exitX=1;exitY=0.25;exitDx=0;exitDy=0;rounded=0;fontSize=12;startSize=8;endSize=8;curved=1;labelBackgroundColor=none;fontColor=default;" parent="o92yWCDCkgeDBt_5n1QN-193" edge="1">
          <mxGeometry width="50" height="50" relative="1" as="geometry">
            <mxPoint y="17" as="sourcePoint" />
            <mxPoint x="16" y="7" as="targetPoint" />
          </mxGeometry>
        </mxCell>
        <mxCell id="o92yWCDCkgeDBt_5n1QN-73" value="" style="ellipse;whiteSpace=wrap;html=1;aspect=fixed;fontSize=16;labelBackgroundColor=none;" parent="o92yWCDCkgeDBt_5n1QN-193" vertex="1">
          <mxGeometry x="13" width="10" height="10" as="geometry" />
        </mxCell>
        <mxCell id="o92yWCDCkgeDBt_5n1QN-196" value="" style="group;labelBackgroundColor=none;" parent="1" vertex="1" connectable="0">
          <mxGeometry x="450" y="794" width="23" height="17" as="geometry" />
        </mxCell>
        <mxCell id="o92yWCDCkgeDBt_5n1QN-59" value="" style="endArrow=none;html=1;exitX=1;exitY=0.25;exitDx=0;exitDy=0;rounded=0;fontSize=12;startSize=8;endSize=8;curved=1;labelBackgroundColor=none;fontColor=default;" parent="o92yWCDCkgeDBt_5n1QN-196" edge="1">
          <mxGeometry width="50" height="50" relative="1" as="geometry">
            <mxPoint y="17" as="sourcePoint" />
            <mxPoint x="16" y="7" as="targetPoint" />
          </mxGeometry>
        </mxCell>
        <mxCell id="o92yWCDCkgeDBt_5n1QN-60" value="" style="ellipse;whiteSpace=wrap;html=1;aspect=fixed;fontSize=16;labelBackgroundColor=none;" parent="o92yWCDCkgeDBt_5n1QN-196" vertex="1">
          <mxGeometry x="13" width="10" height="10" as="geometry" />
        </mxCell>
        <mxCell id="o92yWCDCkgeDBt_5n1QN-197" value="" style="group;labelBackgroundColor=none;" parent="1" vertex="1" connectable="0">
          <mxGeometry x="450" y="814" width="23" height="17" as="geometry" />
        </mxCell>
        <mxCell id="o92yWCDCkgeDBt_5n1QN-61" value="" style="endArrow=none;html=1;exitX=1;exitY=0.25;exitDx=0;exitDy=0;rounded=0;fontSize=12;startSize=8;endSize=8;curved=1;labelBackgroundColor=none;fontColor=default;" parent="o92yWCDCkgeDBt_5n1QN-197" edge="1">
          <mxGeometry width="50" height="50" relative="1" as="geometry">
            <mxPoint y="17" as="sourcePoint" />
            <mxPoint x="16" y="7" as="targetPoint" />
          </mxGeometry>
        </mxCell>
        <mxCell id="o92yWCDCkgeDBt_5n1QN-62" value="" style="ellipse;whiteSpace=wrap;html=1;aspect=fixed;fontSize=16;labelBackgroundColor=none;" parent="o92yWCDCkgeDBt_5n1QN-197" vertex="1">
          <mxGeometry x="13" width="10" height="10" as="geometry" />
        </mxCell>
        <mxCell id="o92yWCDCkgeDBt_5n1QN-198" value="" style="group;labelBackgroundColor=none;" parent="1" vertex="1" connectable="0">
          <mxGeometry x="450" y="834" width="23" height="17" as="geometry" />
        </mxCell>
        <mxCell id="o92yWCDCkgeDBt_5n1QN-63" value="" style="endArrow=none;html=1;exitX=1;exitY=0.25;exitDx=0;exitDy=0;rounded=0;fontSize=12;startSize=8;endSize=8;curved=1;labelBackgroundColor=none;fontColor=default;" parent="o92yWCDCkgeDBt_5n1QN-198" edge="1">
          <mxGeometry width="50" height="50" relative="1" as="geometry">
            <mxPoint y="17" as="sourcePoint" />
            <mxPoint x="16" y="7" as="targetPoint" />
          </mxGeometry>
        </mxCell>
        <mxCell id="o92yWCDCkgeDBt_5n1QN-64" value="" style="ellipse;whiteSpace=wrap;html=1;aspect=fixed;fontSize=16;labelBackgroundColor=none;" parent="o92yWCDCkgeDBt_5n1QN-198" vertex="1">
          <mxGeometry x="13" width="10" height="10" as="geometry" />
        </mxCell>
        <mxCell id="6pzJzdyCD-rdCkjOHxjs-1" value="IDDispositivo" style="text;html=1;strokeColor=none;fillColor=none;align=center;verticalAlign=middle;whiteSpace=wrap;rounded=0;fontStyle=0;fontSize=16;labelBackgroundColor=none;" parent="1" vertex="1">
          <mxGeometry x="504" y="827" width="40" height="23" as="geometry" />
        </mxCell>
        <mxCell id="6pzJzdyCD-rdCkjOHxjs-37" value="Prefissione" style="shape=rhombus;perimeter=rhombusPerimeter;whiteSpace=wrap;html=1;align=center;fontSize=16;labelBackgroundColor=none;" parent="1" vertex="1">
          <mxGeometry x="605" y="630" width="120" height="60" as="geometry" />
        </mxCell>
        <mxCell id="6pzJzdyCD-rdCkjOHxjs-43" value="(1,1)" style="text;html=1;strokeColor=none;fillColor=none;align=center;verticalAlign=middle;whiteSpace=wrap;rounded=0;fontSize=16;labelBackgroundColor=none;" parent="1" vertex="1">
          <mxGeometry x="655" y="120" width="60" height="30" as="geometry" />
        </mxCell>
        <mxCell id="6pzJzdyCD-rdCkjOHxjs-41" value="(0,1)" style="text;html=1;strokeColor=none;fillColor=none;align=center;verticalAlign=middle;whiteSpace=wrap;rounded=0;fontSize=16;labelBackgroundColor=none;" parent="1" vertex="1">
          <mxGeometry x="197" y="663.5" width="60" height="30" as="geometry" />
        </mxCell>
        <mxCell id="6pzJzdyCD-rdCkjOHxjs-45" value="IDAllenamento" style="text;html=1;strokeColor=none;fillColor=none;align=center;verticalAlign=middle;whiteSpace=wrap;rounded=0;fontSize=16;labelBackgroundColor=none;" parent="1" vertex="1">
          <mxGeometry x="609" y="78" width="60" height="30" as="geometry" />
        </mxCell>
        <mxCell id="tvdR1kGcRIIgVOquYtjH-6" value="IDUtente" style="text;html=1;strokeColor=none;fillColor=none;align=center;verticalAlign=middle;whiteSpace=wrap;rounded=0;fontSize=16;labelBackgroundColor=none;" vertex="1" parent="1">
          <mxGeometry x="496" y="523" width="40" height="20" as="geometry" />
        </mxCell>
        <mxCell id="tvdR1kGcRIIgVOquYtjH-12" value="" style="endArrow=none;html=1;rounded=0;fontSize=12;startSize=8;endSize=8;curved=1;exitX=1;exitY=0.5;exitDx=0;exitDy=0;entryX=0;entryY=0.5;entryDx=0;entryDy=0;" edge="1" parent="1" source="o92yWCDCkgeDBt_5n1QN-69" target="6pzJzdyCD-rdCkjOHxjs-37">
          <mxGeometry width="50" height="50" relative="1" as="geometry">
            <mxPoint x="350" y="690" as="sourcePoint" />
            <mxPoint x="400" y="640" as="targetPoint" />
          </mxGeometry>
        </mxCell>
        <mxCell id="tvdR1kGcRIIgVOquYtjH-13" value="" style="endArrow=none;html=1;rounded=0;fontSize=12;startSize=8;endSize=8;exitX=0.5;exitY=0;exitDx=0;exitDy=0;entryX=1;entryY=1;entryDx=0;entryDy=0;edgeStyle=orthogonalEdgeStyle;" edge="1" parent="1" source="6pzJzdyCD-rdCkjOHxjs-37" target="o92yWCDCkgeDBt_5n1QN-106">
          <mxGeometry width="50" height="50" relative="1" as="geometry">
            <mxPoint x="680" y="550" as="sourcePoint" />
            <mxPoint x="730" y="500" as="targetPoint" />
            <Array as="points">
              <mxPoint x="665" y="120" />
            </Array>
          </mxGeometry>
        </mxCell>
      </root>
    </mxGraphModel>
  </diagram>
</mxfile>
